<?xml version="1.0" encoding="UTF-8"?><svg xmlns="http://www.w3.org/2000/svg" viewBox="0 0 289.21 55.23"><defs><style>.d{fill:#fff;}</style></defs><g id="a"/><g id="b"><g id="c"><path class="d" d="M42.83,35.91c-3.91,4.92-8.77,7.38-14.61,7.38-2.94,0-5.54-.66-7.79-1.98-2.26-1.32-4-3.16-5.21-5.51-1.22-2.36-1.83-5.09-1.83-8.18s.61-5.76,1.83-8.14c1.21-2.38,2.93-4.24,5.13-5.55,2.21-1.32,4.76-1.98,7.65-1.98,2.63,0,5.13,.59,7.49,1.78,2.36,1.2,4.42,2.93,6.2,5.22l7.99-8.37C43.44,3.53,35.93,0,27.16,0c-5.38,0-10.12,1.21-14.23,3.62-4.1,2.41-7.29,5.72-9.54,9.92C1.13,17.75,0,22.44,0,27.62s1.13,10,3.39,14.19c2.25,4.18,5.46,7.46,9.62,9.85,4.16,2.38,8.95,3.57,14.38,3.57,4.61,0,8.95-.9,13.01-2.7,4.05-1.8,7.53-4.55,10.42-8.25l-7.99-8.37Z"/><rect class="d" x="55.91" y="16.9" width="13.09" height="37.34"/><polygon class="d" points="55.91 13.72 69 13.72 69 .99 55.91 13.72"/><path class="d" d="M110.91,35.07c3.25-1.42,5.75-3.5,7.5-6.23,1.75-2.74,2.62-6.01,2.62-9.82,0-3.55-.83-6.69-2.51-9.43-1.67-2.74-4.05-4.86-7.15-6.35-3.09-1.5-6.67-2.25-10.72-2.25h-22.37V54.24h13.08v-17.19h7.08l10.04,17.19h14.23l-11.8-19.17Zm-5.21-9.92c-1.49,1.34-3.61,2.01-6.35,2.01h-8.21V11.72h8.21c2.74,0,4.86,.68,6.35,2.05,1.5,1.37,2.25,3.27,2.25,5.71s-.75,4.32-2.25,5.67Z"/><path class="d" d="M161.12,35.07c3.25-1.42,5.75-3.5,7.5-6.23,1.75-2.74,2.62-6.01,2.62-9.82,0-3.55-.84-6.69-2.51-9.43-1.67-2.74-4.06-4.86-7.15-6.35-3.09-1.5-6.67-2.25-10.73-2.25h-22.36V54.24h13.08v-17.19h7.08l10.04,17.19h14.22l-11.79-19.17Zm-5.21-9.92c-1.49,1.34-3.61,2.01-6.35,2.01h-8.22V11.72h8.22c2.74,0,4.86,.68,6.35,2.05,1.5,1.37,2.25,3.27,2.25,5.71s-.75,4.32-2.25,5.67Z"/><path class="d" d="M210.11,.99v31.19c0,3.6-.83,6.34-2.51,8.22-1.67,1.87-4.08,2.81-7.22,2.81s-5.62-.94-7.27-2.81c-1.65-1.88-2.47-4.62-2.47-8.22V.99h-13.08V33.25c0,6.84,2.02,12.21,6.08,16.09s9.64,5.82,16.74,5.82,12.61-1.94,16.7-5.82c4.08-3.88,6.12-9.25,6.12-16.09V.99h-13.09Z"/><path class="d" d="M267.32,28.61c-2.94-2.74-7.53-4.97-13.77-6.7-3.9-1.11-6.57-2.14-7.98-3.08-1.42-.94-2.13-2.06-2.13-3.38s.63-2.29,1.9-3.05c1.26-.76,2.99-1.14,5.17-1.14,2.43,0,4.94,.43,7.53,1.3,2.59,.86,4.79,2,6.62,3.42l5.7-9.13c-2.84-2.08-5.98-3.69-9.43-4.83-3.45-1.14-7.07-1.71-10.88-1.71-4,0-7.49,.64-10.46,1.94-2.96,1.29-5.22,3.09-6.77,5.4s-2.32,4.96-2.32,7.95c0,4.26,1.4,7.72,4.19,10.38,2.79,2.67,7.15,4.78,13.08,6.35,4.01,1.12,6.81,2.17,8.41,3.16,1.59,.99,2.39,2.2,2.39,3.62s-.72,2.61-2.16,3.42c-1.45,.81-3.52,1.22-6.2,1.22-5.69,0-11.11-1.8-16.28-5.41l-5.63,9.44c2.99,2.28,6.41,4.04,10.27,5.29,3.85,1.24,7.83,1.86,11.94,1.86s7.92-.66,11.14-1.98c3.22-1.32,5.71-3.18,7.46-5.59s2.62-5.19,2.62-8.33c0-4.21-1.47-7.68-4.41-10.42Z"/><g><path class="d" d="M272.24,51.3l3.05-2.77c.34-.31,.59-.59,.75-.85,.16-.25,.23-.5,.23-.75s-.1-.47-.29-.64c-.2-.17-.45-.25-.76-.25s-.62,.09-.89,.26c-.28,.17-.55,.44-.82,.81l-1.28-1.22c.42-.58,.88-1,1.39-1.26,.51-.26,1.08-.4,1.71-.4,.58,0,1.1,.11,1.55,.32s.79,.51,1.04,.9c.24,.39,.37,.84,.37,1.35,0,.57-.14,1.09-.41,1.57-.28,.48-.73,.98-1.36,1.51l-1.38,1.16,1.38-.04h1.98v1.76h-6.23v-1.48Z"/><path class="d" d="M279.78,52.6c-.21-.2-.32-.45-.32-.77s.11-.57,.32-.77,.48-.3,.8-.3,.59,.1,.8,.3,.32,.46,.32,.77-.11,.58-.32,.77c-.21,.2-.48,.29-.8,.29s-.59-.1-.8-.29Z"/><path class="d" d="M283.57,52.4c-.55-.35-.98-.85-1.27-1.5s-.44-1.43-.44-2.32,.15-1.67,.44-2.32c.3-.65,.72-1.15,1.27-1.5,.55-.35,1.21-.52,1.97-.52s1.4,.17,1.96,.52c.55,.35,.98,.85,1.27,1.5,.3,.65,.44,1.43,.44,2.32s-.15,1.66-.44,2.32-.72,1.16-1.27,1.51c-.55,.35-1.2,.52-1.96,.52s-1.42-.17-1.97-.52Zm.76-1.96c.29,.46,.69,.69,1.21,.69s.91-.23,1.21-.68,.44-1.08,.44-1.87-.15-1.42-.44-1.87-.69-.68-1.21-.68-.91,.23-1.21,.69c-.29,.46-.44,1.08-.44,1.87s.15,1.41,.44,1.87Z"/></g></g></g></svg>