<?xml version="1.0" encoding="UTF-8"?><svg xmlns="http://www.w3.org/2000/svg" viewBox="0 0 214.63 74.58"><defs><style>.d{fill:#2c459b;}.e{fill:#39a2db;}</style></defs><g id="a"/><g id="b"><g id="c"><g><path class="e" d="M57.04,36.83v-.25c0-1.26-1.03-2.29-2.29-2.29h-13.82c-1.05-1.28-2.73-2.01-4.59-1.65s-3.32,1.81-3.69,3.64c-.63,3.06,1.69,5.75,4.64,5.75,1.47,0,2.77-.69,3.64-1.74h9.78c-1.47,6.58-7.68,11.4-14.85,10.68-6.68-.68-11.98-6.3-12.31-13-.38-7.89,5.93-14.43,13.73-14.43,2.69,0,5.31,.79,7.53,2.25,1.2,.78,2.78,.66,3.79-.35h0c1.35-1.35,1.11-3.6-.5-4.64-3.21-2.08-7-3.25-10.83-3.25-10.89,0-19.75,8.86-19.75,19.75,0,11.5,9.88,20.73,21.59,19.67,10.24-.93,17.91-9.84,17.91-20.12Z"/><path class="e" d="M14.8,17.36c-.55,.62-.49,1.57,.13,2.12,.29,.25,.64,.38,.99,.38,.41,0,.83-.17,1.12-.5,2.6-2.93,5.84-5.28,9.41-6.84,.86,1.16,2.23,1.93,3.79,1.93,2.61,0,4.73-2.12,4.73-4.73s-2.12-4.73-4.73-4.73-4.7,2.09-4.73,4.68c-4.07,1.74-7.77,4.38-10.72,7.71ZM30.25,7.97c.96,0,1.73,.78,1.73,1.73s-.78,1.73-1.73,1.73-1.73-.78-1.73-1.73,.78-1.73,1.73-1.73Z"/><path class="e" d="M10.98,27.69c.58,0,1.14-.34,1.38-.92,.63-1.49,1.4-2.94,2.3-4.3,.45-.69,.26-1.62-.43-2.08-.69-.46-1.62-.26-2.08,.43-.99,1.51-1.85,3.12-2.55,4.78-.32,.76,.04,1.64,.8,1.97,.19,.08,.39,.12,.58,.12Z"/><path class="e" d="M42.04,63.92c-1.56,.28-3.16,.42-4.75,.42-.83,0-1.5,.67-1.5,1.5s.67,1.5,1.5,1.5c1.77,0,3.54-.16,5.27-.46,.82-.14,1.36-.92,1.22-1.74-.14-.82-.92-1.37-1.74-1.21Z"/><path class="d" d="M59.93,54.73c.26,.18,.56,.27,.85,.27,.48,0,.94-.23,1.24-.65,.89-1.29,1.69-2.66,2.36-4.07,.36-.75,.04-1.64-.7-2-.75-.36-1.64-.04-2,.7-.61,1.27-1.33,2.5-2.13,3.66-.47,.68-.3,1.62,.38,2.09Z"/><path class="d" d="M37.29,10.24c2.85,0,5.66,.44,8.35,1.31,.15,.05,.31,.07,.46,.07,.63,0,1.22-.4,1.43-1.04,.26-.79-.18-1.63-.96-1.89-2.99-.97-6.11-1.46-9.27-1.46-.83,0-1.5,.67-1.5,1.5s.67,1.5,1.5,1.5Z"/><path class="d" d="M4.38,33.26c0,1.95,1.18,3.62,2.87,4.35,.03,3.72,.65,7.12,1.85,10.09,.4,1,1.28,2.92,1.74,3.84,.81,1.63,1.86,3.07,2.69,4.14,.3,.38,.74,.58,1.19,.58,.32,0,.64-.1,.92-.31,.65-.51,.77-1.45,.27-2.1-.74-.96-1.69-2.24-2.38-3.63-.43-.87-1.27-2.71-1.64-3.63-1.03-2.55-1.56-5.5-1.61-8.75,2.05-.52,3.58-2.36,3.58-4.57,0-2.61-2.12-4.73-4.73-4.73s-4.73,2.12-4.73,4.73Zm6.46,0c0,.96-.78,1.73-1.73,1.73s-1.73-.78-1.73-1.73,.78-1.73,1.73-1.73,1.73,.78,1.73,1.73Z"/><path class="e" d="M20.14,64.81c1.12,0,2.13-.4,2.94-1.05,3.25,1.75,6.75,2.88,10.42,3.34,.06,0,.13,.01,.19,.01,.75,0,1.39-.55,1.49-1.31,.1-.82-.48-1.57-1.3-1.67-3.22-.4-6.3-1.38-9.16-2.89,.09-.37,.16-.75,.16-1.15,0-2.61-2.12-4.73-4.73-4.73s-4.73,2.12-4.73,4.73,2.12,4.73,4.73,4.73Zm0-6.46c.96,0,1.73,.78,1.73,1.73s-.78,1.73-1.73,1.73-1.73-.78-1.73-1.73,.78-1.73,1.73-1.73Z"/><path class="d" d="M53.66,63.31c0-.27-.04-.54-.08-.8,2.2-1.43,4.22-3.12,5.99-5.07,.56-.61,.51-1.56-.11-2.12s-1.56-.51-2.12,.11c-1.54,1.7-3.29,3.18-5.2,4.44-.85-.79-1.97-1.28-3.22-1.28-2.61,0-4.73,2.12-4.73,4.73s2.12,4.73,4.73,4.73,4.73-2.12,4.73-4.73Zm-4.73,1.73c-.96,0-1.73-.78-1.73-1.73s.78-1.73,1.73-1.73,1.73,.78,1.73,1.73-.78,1.73-1.73,1.73Z"/><path class="e" d="M70.1,42.96c0-1.92-1.16-3.57-2.81-4.31,.02-.45,.03-.9,.03-1.36,0-4.2-.85-8.26-2.53-12.08-.33-.76-1.22-1.1-1.98-.77-.76,.33-1.1,1.22-.77,1.98,1.51,3.43,2.27,7.09,2.27,10.87,0,.36-.01,.72-.03,1.07-2.09,.49-3.66,2.36-3.66,4.6,0,2.61,2.12,4.73,4.73,4.73s4.73-2.12,4.73-4.73Zm-6.46,0c0-.96,.78-1.73,1.73-1.73s1.73,.78,1.73,1.73-.78,1.73-1.73,1.73-1.73-.78-1.73-1.73Z"/><path class="d" d="M64.49,19.64c0-2.61-2.12-4.73-4.73-4.73-.71,0-1.37,.17-1.97,.45-2.19-2.05-4.64-3.76-7.33-5.08-.74-.36-1.64-.05-2.01,.69-.36,.74-.05,1.64,.69,2.01,2.37,1.16,4.53,2.66,6.47,4.45-.36,.67-.58,1.41-.58,2.22,0,2.61,2.12,4.73,4.73,4.73s4.73-2.12,4.73-4.73Zm-6.46,0c0-.96,.78-1.73,1.73-1.73s1.73,.78,1.73,1.73-.78,1.73-1.73,1.73-1.73-.78-1.73-1.73Z"/><path class="e" d="M3.28,27.42c-.15,0-.31-.02-.46-.07-.76-.25-1.17-1.07-.92-1.83C5.07,15.98,12.09,8.02,21.15,3.66c.72-.35,1.59-.04,1.94,.68,.35,.72,.04,1.59-.68,1.93C14.05,10.3,7.57,17.64,4.65,26.42c-.2,.61-.77,.99-1.38,.99Z"/><path class="d" d="M10.48,62.53c-.4,0-.8-.17-1.08-.49C3.34,55.21,0,46.42,0,37.29c0-.8,.65-1.45,1.45-1.45s1.45,.65,1.45,1.45c0,8.43,3.08,16.53,8.67,22.83,.53,.6,.48,1.52-.12,2.05-.28,.25-.62,.37-.96,.37Z"/><path class="d" d="M37.29,74.58c-6.12,0-12.19-1.52-17.55-4.38-.71-.38-.97-1.26-.6-1.96,.38-.71,1.26-.97,1.96-.6,4.94,2.64,10.54,4.04,16.18,4.04,3.18,0,6.33-.43,9.36-1.29,.77-.21,1.57,.23,1.79,1,.22,.77-.23,1.57-1,1.79-3.28,.93-6.7,1.4-10.14,1.4Z"/><path class="e" d="M57.17,68.56c-.47,0-.93-.23-1.21-.64-.44-.67-.27-1.57,.4-2.01,5.75-3.84,10.17-9.25,12.77-15.63,.3-.74,1.15-1.1,1.89-.79s1.1,1.15,.79,1.89c-2.82,6.92-7.61,12.78-13.85,16.94-.25,.17-.53,.24-.8,.24Z"/><path class="d" d="M73.12,38.74c-.8,0-1.45-.65-1.45-1.45,0-5.37-1.2-10.5-3.57-15.27-.28-.56-.57-1.12-.88-1.66-.4-.7-.15-1.58,.55-1.98,.7-.39,1.58-.15,1.98,.55,.34,.59,.66,1.19,.96,1.8,2.57,5.17,3.87,10.74,3.87,16.56,0,.8-.65,1.45-1.45,1.45Z"/><path class="e" d="M61.91,12.7c-.36,0-.72-.13-1-.4-.66-.63-1.36-1.24-2.07-1.81-6.17-4.97-13.62-7.59-21.56-7.59-1.19,0-2.39,.06-3.57,.18-.8,.08-1.51-.5-1.59-1.29-.08-.8,.5-1.51,1.29-1.59,1.27-.13,2.57-.2,3.86-.2,8.48,0,16.78,2.92,23.38,8.24,.77,.62,1.52,1.28,2.24,1.96,.58,.55,.61,1.47,.06,2.05-.29,.3-.67,.45-1.05,.45Z"/></g><g><path class="d" d="M89.38,50.27c-2.33-1.26-4.14-3.01-5.43-5.26-1.28-2.25-1.93-4.83-1.93-7.72s.64-5.39,1.93-7.64,3.07-4.02,5.37-5.31c2.29-1.28,4.9-1.93,7.82-1.93,2.18,0,4.25,.37,6.21,1.11,.88,.33,1.73,.74,2.55,1.23,1.59,.95,2,3.07,.83,4.51h0c-.9,1.1-2.48,1.48-3.71,.77-.47-.27-.96-.5-1.49-.69-1.31-.49-2.66-.74-4.06-.74-1.67,0-3.13,.37-4.4,1.11-1.27,.74-2.26,1.77-2.97,3.09-.71,1.33-1.06,2.82-1.06,4.49s.35,3.24,1.06,4.55c.71,1.31,1.73,2.33,3.05,3.05,1.32,.72,2.87,1.09,4.65,1.09,2.29,0,4.37-.55,6.23-1.64v-3.73h-5.39c-1.48,0-2.68-1.2-2.68-2.68h0c0-1.48,1.2-2.68,2.68-2.68h8.63c1.49,0,2.7,1.21,2.7,2.7v7.98c0,1.08-.49,2.1-1.35,2.75-1.27,.96-2.71,1.72-4.3,2.3-2.19,.79-4.46,1.19-6.84,1.19-3.06,0-5.76-.63-8.09-1.88Z"/><path class="d" d="M118.32,22.95h0c1.95,0,3.52,1.58,3.52,3.52v21.63c0,1.95-1.58,3.52-3.52,3.52h0c-1.95,0-3.52-1.58-3.52-3.52V26.47c0-1.95,1.58-3.52,3.52-3.52Z"/><path class="d" d="M140.15,22.95h0c2.27,0,4.31,1.4,5.13,3.53l7.88,20.58c.84,2.2-.78,4.57-3.14,4.57h0c-1.42,0-2.68-.89-3.16-2.22l-.6-1.66c-.24-.67-.88-1.12-1.59-1.12h-9.01c-.71,0-1.35,.45-1.59,1.12l-.6,1.66c-.48,1.33-1.75,2.22-3.16,2.22h-.1c-2.36,0-3.99-2.37-3.14-4.58l7.97-20.59c.82-2.11,2.85-3.51,5.12-3.51Zm3.95,17.95l-3.46-9.54c-.15-.42-.75-.42-.9,0l-3.52,9.54c-.12,.31,.12,.65,.45,.65h6.98c.33,0,.57-.33,.45-.65Z"/><path class="d" d="M165.35,33.97v14.17c0,1.92-1.56,3.48-3.48,3.48h0c-1.92,0-3.48-1.56-3.48-3.48V27.08c0-2.28,1.85-4.13,4.13-4.13h0c1.32,0,2.55,.63,3.33,1.69l7.69,10.48,7.73-10.49c.78-1.06,2.01-1.68,3.33-1.68h.05c2.28,0,4.13,1.85,4.13,4.13v21.06c0,1.92-1.56,3.48-3.48,3.48h-.04c-1.92,0-3.48-1.56-3.48-3.48v-14.17l-5.72,7.98c-.58,.8-1.51,1.28-2.5,1.28h0c-.99,0-1.92-.48-2.5-1.28l-5.72-7.98Z"/><path class="d" d="M196.77,50.99c-1.05-.34-2.05-.75-2.98-1.24-1.46-.76-1.94-2.63-1.09-4.05l.09-.16c.78-1.3,2.43-1.79,3.79-1.12,2.08,1.03,4.24,1.54,6.46,1.54,1.45,0,2.56-.22,3.34-.66,.78-.44,1.17-1.05,1.17-1.84s-.43-1.41-1.29-1.95c-.86-.53-2.37-1.1-4.53-1.7-3.2-.85-5.54-1.99-7.05-3.42-1.5-1.43-2.25-3.3-2.25-5.59,0-1.61,.42-3.04,1.25-4.28,.83-1.24,2.05-2.21,3.65-2.91s3.47-1.04,5.63-1.04,4,.31,5.86,.92c.82,.27,1.61,.59,2.37,.97,1.53,.75,2.05,2.7,1.14,4.15h0c-.77,1.23-2.32,1.73-3.64,1.12-.45-.21-.93-.39-1.43-.56-1.39-.46-2.74-.7-4.06-.7-1.17,0-2.1,.2-2.79,.61-.68,.41-1.02,.96-1.02,1.64s.38,1.32,1.15,1.82c.76,.51,2.2,1.06,4.3,1.66,3.36,.93,5.83,2.13,7.42,3.6,1.58,1.47,2.38,3.35,2.38,5.61,0,1.69-.47,3.19-1.41,4.49-.94,1.3-2.28,2.3-4.01,3.01-1.73,.71-3.74,1.06-6,1.06s-4.36-.33-6.43-1Z"/></g><g><path class="d" d="M88.46,57.72v-.47h1.69v1.48c-.26,.21-.53,.36-.8,.47s-.56,.16-.85,.16c-.39,0-.75-.08-1.07-.25-.32-.17-.56-.41-.72-.73-.16-.32-.24-.67-.24-1.06s.08-.75,.24-1.09c.16-.34,.4-.59,.7-.75,.3-.16,.66-.24,1.05-.24,.29,0,.55,.05,.78,.14s.42,.22,.55,.39c.13,.17,.23,.38,.3,.65l-.48,.13c-.06-.2-.13-.36-.22-.48-.09-.12-.22-.21-.38-.28-.17-.07-.35-.1-.55-.1-.24,0-.45,.04-.62,.11-.18,.07-.32,.17-.43,.29s-.19,.25-.25,.39c-.1,.25-.15,.51-.15,.8,0,.35,.06,.65,.18,.89,.12,.24,.3,.42,.53,.53,.23,.12,.48,.17,.74,.17,.23,0,.45-.04,.67-.13,.22-.09,.38-.18,.5-.28v-.74h-1.17Z"/><path class="d" d="M90.76,57.34c0-.66,.18-1.18,.53-1.55,.36-.37,.81-.56,1.38-.56,.37,0,.7,.09,.99,.26,.3,.18,.52,.42,.68,.74,.15,.31,.23,.67,.23,1.07s-.08,.77-.24,1.08-.39,.56-.69,.72c-.3,.16-.62,.25-.97,.25-.38,0-.71-.09-1.01-.27-.3-.18-.52-.43-.67-.74-.15-.31-.23-.65-.23-1Zm.54,0c0,.48,.13,.86,.39,1.13s.58,.41,.97,.41,.72-.14,.98-.42c.26-.28,.38-.68,.38-1.19,0-.32-.05-.61-.16-.85-.11-.24-.27-.43-.48-.56s-.45-.2-.71-.2c-.37,0-.69,.13-.96,.38s-.4,.68-.4,1.28Z"/><path class="d" d="M96.39,59.28l-1.54-3.98h.57l1.04,2.9c.08,.23,.15,.45,.21,.65,.06-.22,.13-.44,.21-.65l1.08-2.9h.54l-1.56,3.98h-.54Z"/><path class="d" d="M98.98,59.28v-3.98h2.88v.47h-2.35v1.22h2.2v.47h-2.2v1.36h2.45v.47h-2.97Z"/><path class="d" d="M102.69,59.28v-3.98h1.77c.35,0,.62,.04,.81,.11,.19,.07,.33,.2,.44,.38,.11,.18,.17,.38,.17,.6,0,.28-.09,.52-.27,.71s-.47,.32-.85,.37c.14,.07,.25,.13,.32,.2,.15,.14,.3,.32,.44,.53l.69,1.08h-.66l-.53-.83c-.15-.24-.28-.42-.38-.55-.1-.13-.19-.22-.27-.27-.08-.05-.16-.09-.24-.11-.06-.01-.16-.02-.29-.02h-.61v1.77h-.53Zm.53-2.23h1.13c.24,0,.43-.02,.57-.07,.14-.05,.24-.13,.31-.24,.07-.11,.11-.23,.11-.36,0-.19-.07-.34-.21-.46s-.35-.18-.65-.18h-1.26v1.32Z"/><path class="d" d="M106.69,59.28v-3.98h.54l2.09,3.13v-3.13h.51v3.98h-.54l-2.09-3.13v3.13h-.51Z"/><path class="d" d="M110.7,59.28v-3.98h.79l.94,2.82c.09,.26,.15,.46,.19,.59,.05-.14,.12-.36,.21-.64l.95-2.77h.71v3.98h-.51v-3.33l-1.16,3.33h-.48l-1.15-3.39v3.39h-.51Z"/><path class="d" d="M115.37,59.28v-3.98h2.88v.47h-2.35v1.22h2.2v.47h-2.2v1.36h2.45v.47h-2.97Z"/><path class="d" d="M119.06,59.28v-3.98h.54l2.09,3.13v-3.13h.51v3.98h-.54l-2.09-3.13v3.13h-.51Z"/><path class="d" d="M124.1,59.28v-3.51h-1.31v-.47h3.16v.47h-1.32v3.51h-.53Z"/><path class="d" d="M128.03,59.28v-3.98h.53v3.98h-.53Z"/><path class="d" d="M129.48,59.28v-3.98h.54l2.09,3.13v-3.13h.51v3.98h-.54l-2.09-3.13v3.13h-.51Z"/><path class="d" d="M134.52,59.28v-3.51h-1.31v-.47h3.16v.47h-1.32v3.51h-.53Z"/><path class="d" d="M136.91,59.28v-3.98h2.88v.47h-2.35v1.22h2.2v.47h-2.2v1.36h2.45v.47h-2.97Z"/><path class="d" d="M142.48,57.72v-.47h1.69v1.48c-.26,.21-.53,.36-.8,.47s-.56,.16-.85,.16c-.39,0-.75-.08-1.07-.25-.32-.17-.56-.41-.72-.73-.16-.32-.24-.67-.24-1.06s.08-.75,.24-1.09c.16-.34,.4-.59,.7-.75,.3-.16,.66-.24,1.05-.24,.29,0,.55,.05,.78,.14s.42,.22,.55,.39c.13,.17,.23,.38,.3,.65l-.48,.13c-.06-.2-.13-.36-.22-.48-.09-.12-.22-.21-.38-.28-.17-.07-.35-.1-.55-.1-.24,0-.45,.04-.62,.11-.18,.07-.32,.17-.43,.29s-.19,.25-.25,.39c-.1,.25-.15,.51-.15,.8,0,.35,.06,.65,.18,.89,.12,.24,.3,.42,.53,.53,.23,.12,.48,.17,.74,.17,.23,0,.45-.04,.67-.13,.22-.09,.38-.18,.5-.28v-.74h-1.17Z"/><path class="d" d="M144.95,59.28v-3.98h1.77c.35,0,.62,.04,.81,.11,.19,.07,.33,.2,.44,.38,.11,.18,.17,.38,.17,.6,0,.28-.09,.52-.27,.71s-.47,.32-.85,.37c.14,.07,.25,.13,.32,.2,.15,.14,.3,.32,.44,.53l.69,1.08h-.66l-.53-.83c-.15-.24-.28-.42-.38-.55-.1-.13-.19-.22-.27-.27-.08-.05-.16-.09-.24-.11-.06-.01-.16-.02-.29-.02h-.61v1.77h-.53Zm.53-2.23h1.13c.24,0,.43-.02,.57-.07,.14-.05,.24-.13,.31-.24,.07-.11,.11-.23,.11-.36,0-.19-.07-.34-.21-.46s-.35-.18-.65-.18h-1.26v1.32Z"/><path class="d" d="M148.53,59.28l1.53-3.98h.57l1.63,3.98h-.6l-.46-1.21h-1.67l-.44,1.21h-.56Zm1.15-1.64h1.35l-.42-1.1c-.13-.34-.22-.61-.28-.83-.05,.26-.12,.51-.21,.76l-.44,1.17Z"/><path class="d" d="M153.28,59.28v-3.51h-1.31v-.47h3.16v.47h-1.32v3.51h-.53Z"/><path class="d" d="M155.68,59.28v-3.98h2.88v.47h-2.35v1.22h2.2v.47h-2.2v1.36h2.45v.47h-2.97Z"/><path class="d" d="M159.38,59.28v-3.98h1.37c.31,0,.55,.02,.71,.06,.23,.05,.42,.15,.58,.29,.21,.18,.37,.4,.47,.68,.1,.28,.16,.59,.16,.95,0,.3-.04,.57-.11,.8s-.16,.43-.27,.58c-.11,.15-.23,.27-.36,.36-.13,.09-.29,.15-.48,.2s-.4,.07-.64,.07h-1.44Zm.53-.47h.85c.26,0,.47-.02,.62-.07,.15-.05,.27-.12,.36-.21,.12-.12,.22-.29,.29-.5,.07-.21,.1-.47,.1-.77,0-.42-.07-.74-.21-.96-.14-.22-.3-.37-.5-.45-.14-.05-.37-.08-.68-.08h-.84v3.04Z"/><path class="d" d="M164.2,59.28l1.53-3.98h.57l1.63,3.98h-.6l-.46-1.21h-1.67l-.44,1.21h-.56Zm1.15-1.64h1.35l-.42-1.1c-.13-.34-.22-.61-.28-.83-.05,.26-.12,.51-.21,.76l-.44,1.17Z"/><path class="d" d="M168.35,59.28v-3.98h1.37c.31,0,.55,.02,.71,.06,.23,.05,.42,.15,.58,.29,.21,.18,.37,.4,.47,.68,.1,.28,.16,.59,.16,.95,0,.3-.04,.57-.11,.8s-.16,.43-.27,.58c-.11,.15-.23,.27-.36,.36-.13,.09-.29,.15-.48,.2s-.4,.07-.64,.07h-1.44Zm.53-.47h.85c.26,0,.47-.02,.62-.07,.15-.05,.27-.12,.36-.21,.12-.12,.22-.29,.29-.5,.07-.21,.1-.47,.1-.77,0-.42-.07-.74-.21-.96-.14-.22-.3-.37-.5-.45-.14-.05-.37-.08-.68-.08h-.84v3.04Z"/><path class="d" d="M172.36,59.28v-3.98h.79l.94,2.82c.09,.26,.15,.46,.19,.59,.05-.14,.12-.36,.21-.64l.95-2.77h.71v3.98h-.51v-3.33l-1.16,3.33h-.48l-1.15-3.39v3.39h-.51Z"/><path class="d" d="M177.1,59.28v-3.98h.53v3.98h-.53Z"/><path class="d" d="M178.55,59.28v-3.98h.54l2.09,3.13v-3.13h.51v3.98h-.54l-2.09-3.13v3.13h-.51Z"/><path class="d" d="M182.66,59.28v-3.98h.53v3.98h-.53Z"/><path class="d" d="M183.94,58l.5-.04c.02,.2,.08,.36,.16,.49,.09,.13,.22,.23,.4,.31,.18,.08,.38,.12,.61,.12,.2,0,.38-.03,.53-.09,.15-.06,.27-.14,.34-.25,.08-.1,.11-.22,.11-.34s-.04-.23-.11-.33c-.07-.09-.19-.17-.36-.24-.11-.04-.34-.11-.71-.19s-.62-.17-.77-.25c-.19-.1-.33-.22-.42-.37-.09-.15-.14-.31-.14-.5,0-.2,.06-.39,.17-.56,.11-.17,.28-.31,.5-.4,.22-.09,.46-.14,.73-.14,.3,0,.56,.05,.78,.14s.4,.24,.52,.42c.12,.19,.19,.39,.2,.63l-.51,.04c-.03-.25-.12-.44-.28-.57-.16-.13-.39-.19-.69-.19s-.55,.06-.7,.18c-.15,.12-.22,.26-.22,.42,0,.14,.05,.26,.15,.35,.1,.09,.37,.19,.79,.28,.43,.1,.72,.18,.88,.25,.23,.11,.4,.24,.51,.41s.17,.35,.17,.57-.06,.41-.18,.6-.3,.33-.52,.44-.48,.16-.77,.16c-.36,0-.66-.05-.91-.16-.24-.1-.44-.26-.57-.47s-.21-.45-.22-.72Z"/><path class="d" d="M188.85,59.28v-3.51h-1.31v-.47h3.16v.47h-1.32v3.51h-.53Z"/><path class="d" d="M191.24,59.28v-3.98h1.77c.35,0,.62,.04,.81,.11,.18,.07,.33,.2,.44,.38,.11,.18,.17,.38,.17,.6,0,.28-.09,.52-.27,.71-.18,.19-.47,.32-.85,.37,.14,.07,.25,.13,.32,.2,.15,.14,.3,.32,.44,.53l.69,1.08h-.66l-.53-.83c-.15-.24-.28-.42-.38-.55-.1-.13-.19-.22-.27-.27-.08-.05-.16-.09-.24-.11-.06-.01-.16-.02-.29-.02h-.61v1.77h-.53Zm.53-2.23h1.13c.24,0,.43-.02,.57-.07s.24-.13,.31-.24c.07-.11,.11-.23,.11-.36,0-.19-.07-.34-.21-.46s-.35-.18-.65-.18h-1.26v1.32Z"/><path class="d" d="M194.82,59.28l1.53-3.98h.57l1.63,3.98h-.6l-.46-1.21h-1.67l-.44,1.21h-.56Zm1.15-1.64h1.35l-.42-1.1c-.13-.34-.22-.61-.28-.83-.05,.26-.12,.51-.21,.76l-.44,1.17Z"/><path class="d" d="M199.57,59.28v-3.51h-1.31v-.47h3.16v.47h-1.32v3.51h-.53Z"/><path class="d" d="M202.04,59.28v-3.98h.53v3.98h-.53Z"/><path class="d" d="M204.64,59.28l-1.54-3.98h.57l1.04,2.9c.08,.23,.15,.45,.21,.65,.06-.22,.13-.44,.21-.65l1.08-2.9h.54l-1.56,3.98h-.54Z"/><path class="d" d="M207.23,59.28v-3.98h2.88v.47h-2.35v1.22h2.2v.47h-2.2v1.36h2.45v.47h-2.97Z"/><path class="d" d="M116.63,65.96v-3.98h.79l.94,2.82c.09,.26,.15,.46,.19,.59,.05-.14,.12-.36,.21-.64l.95-2.77h.71v3.98h-.51v-3.33l-1.16,3.33h-.48l-1.15-3.39v3.39h-.51Z"/><path class="d" d="M120.84,65.96l1.53-3.98h.57l1.63,3.98h-.6l-.46-1.21h-1.67l-.44,1.21h-.56Zm1.15-1.64h1.35l-.42-1.1c-.13-.34-.22-.61-.28-.83-.05,.26-.12,.51-.21,.76l-.44,1.17Z"/><path class="d" d="M124.99,65.96v-3.98h.54l2.09,3.13v-3.13h.51v3.98h-.54l-2.09-3.13v3.13h-.51Z"/><path class="d" d="M128.58,65.96l1.53-3.98h.57l1.63,3.98h-.6l-.46-1.21h-1.67l-.44,1.21h-.56Zm1.15-1.64h1.35l-.42-1.1c-.13-.34-.22-.61-.28-.83-.05,.26-.12,.51-.21,.76l-.44,1.17Z"/><path class="d" d="M134.59,64.4v-.47h1.69v1.48c-.26,.21-.53,.36-.8,.47s-.56,.16-.85,.16c-.39,0-.75-.08-1.07-.25-.32-.17-.56-.41-.72-.73-.16-.32-.24-.67-.24-1.06s.08-.75,.24-1.09c.16-.34,.4-.59,.7-.75,.3-.16,.66-.24,1.05-.24,.29,0,.55,.05,.78,.14s.42,.22,.55,.39c.13,.17,.23,.38,.3,.65l-.48,.13c-.06-.2-.13-.36-.22-.48-.09-.12-.22-.21-.38-.28-.17-.07-.35-.1-.55-.1-.24,0-.45,.04-.62,.11-.18,.07-.32,.17-.43,.29s-.19,.25-.25,.39c-.1,.25-.15,.51-.15,.8,0,.35,.06,.65,.18,.89,.12,.24,.3,.42,.53,.53,.23,.12,.48,.17,.74,.17,.23,0,.45-.04,.67-.13,.22-.09,.38-.18,.5-.28v-.74h-1.17Z"/><path class="d" d="M137.07,65.96v-3.98h2.88v.47h-2.35v1.22h2.2v.47h-2.2v1.36h2.45v.47h-2.97Z"/><path class="d" d="M140.75,65.96v-3.98h.79l.94,2.82c.09,.26,.15,.46,.19,.59,.05-.14,.12-.36,.21-.64l.95-2.77h.71v3.98h-.51v-3.33l-1.16,3.33h-.48l-1.15-3.39v3.39h-.51Z"/><path class="d" d="M145.42,65.96v-3.98h2.88v.47h-2.35v1.22h2.2v.47h-2.2v1.36h2.45v.47h-2.97Z"/><path class="d" d="M149.12,65.96v-3.98h.54l2.09,3.13v-3.13h.51v3.98h-.54l-2.09-3.13v3.13h-.51Z"/><path class="d" d="M154.15,65.96v-3.51h-1.31v-.47h3.16v.47h-1.32v3.51h-.53Z"/><path class="d" d="M157.81,64.68l.5-.04c.02,.2,.08,.36,.17,.49,.09,.13,.22,.23,.4,.31,.18,.08,.38,.12,.61,.12,.2,0,.38-.03,.53-.09,.15-.06,.27-.14,.34-.25,.08-.1,.11-.22,.11-.34s-.04-.23-.11-.33-.19-.17-.36-.24c-.11-.04-.34-.11-.71-.19s-.62-.17-.77-.25c-.19-.1-.33-.22-.43-.37-.09-.15-.14-.31-.14-.5,0-.2,.06-.39,.17-.56s.28-.31,.5-.4c.22-.09,.46-.14,.73-.14,.29,0,.56,.05,.78,.14s.4,.24,.52,.42c.12,.19,.19,.39,.2,.63l-.51,.04c-.03-.25-.12-.44-.28-.57-.16-.13-.39-.19-.69-.19s-.55,.06-.7,.18c-.15,.12-.22,.26-.22,.42,0,.14,.05,.26,.16,.35,.1,.09,.37,.19,.79,.28,.43,.1,.72,.18,.88,.25,.23,.11,.4,.24,.51,.41s.17,.35,.17,.57-.06,.41-.18,.6c-.12,.19-.3,.33-.52,.44s-.48,.16-.77,.16c-.36,0-.66-.05-.91-.16-.24-.1-.43-.26-.57-.47s-.21-.45-.22-.72Z"/><path class="d" d="M162.82,65.96v-1.69l-1.54-2.3h.64l.79,1.2c.14,.22,.28,.45,.4,.67,.12-.21,.26-.44,.44-.7l.77-1.17h.61l-1.59,2.3v1.69h-.53Z"/><path class="d" d="M165.23,64.68l.5-.04c.02,.2,.08,.36,.17,.49,.09,.13,.22,.23,.4,.31,.18,.08,.38,.12,.61,.12,.2,0,.38-.03,.53-.09,.15-.06,.27-.14,.34-.25,.08-.1,.11-.22,.11-.34s-.04-.23-.11-.33-.19-.17-.36-.24c-.11-.04-.34-.11-.71-.19s-.62-.17-.77-.25c-.19-.1-.33-.22-.43-.37-.09-.15-.14-.31-.14-.5,0-.2,.06-.39,.17-.56s.28-.31,.5-.4c.22-.09,.46-.14,.73-.14,.29,0,.56,.05,.78,.14s.4,.24,.52,.42c.12,.19,.19,.39,.2,.63l-.51,.04c-.03-.25-.12-.44-.28-.57-.16-.13-.39-.19-.69-.19s-.55,.06-.7,.18c-.15,.12-.22,.26-.22,.42,0,.14,.05,.26,.16,.35,.1,.09,.37,.19,.79,.28,.43,.1,.72,.18,.88,.25,.23,.11,.4,.24,.51,.41s.17,.35,.17,.57-.06,.41-.18,.6c-.12,.19-.3,.33-.52,.44s-.48,.16-.77,.16c-.36,0-.66-.05-.91-.16-.24-.1-.43-.26-.57-.47s-.21-.45-.22-.72Z"/><path class="d" d="M170.14,65.96v-3.51h-1.31v-.47h3.16v.47h-1.32v3.51h-.53Z"/><path class="d" d="M172.54,65.96v-3.98h2.88v.47h-2.35v1.22h2.2v.47h-2.2v1.36h2.45v.47h-2.97Z"/><path class="d" d="M176.22,65.96v-3.98h.79l.94,2.82c.09,.26,.15,.46,.19,.59,.05-.14,.12-.36,.21-.64l.95-2.77h.71v3.98h-.51v-3.33l-1.16,3.33h-.48l-1.15-3.39v3.39h-.51Z"/></g></g></g></svg>