<?xml version="1.0" encoding="UTF-8"?><svg xmlns="http://www.w3.org/2000/svg" viewBox="0 0 60.93 22.09"><defs><style>.d{fill:#fff;}</style></defs><g id="a"/><g id="b"><g id="c"><g><path class="d" d="M0,17.07L3.56,0h2.11l-1.36,6.56c.78-.76,1.51-1.31,2.19-1.64s1.37-.5,2.08-.5c1.02,0,1.82,.27,2.39,.81,.57,.54,.85,1.25,.85,2.14,0,.43-.12,1.23-.37,2.4l-1.53,7.3h-2.11l1.57-7.49c.23-1.09,.34-1.77,.34-2.05,0-.4-.14-.73-.42-.99-.28-.26-.68-.38-1.21-.38-.76,0-1.49,.2-2.18,.6-.69,.4-1.23,.95-1.62,1.64-.39,.7-.75,1.82-1.08,3.36l-1.11,5.31H0Z"/><path class="d" d="M12.47,21.85l.13-1.98c.44,.12,.86,.19,1.27,.19s.77-.1,1.04-.29c.34-.26,.71-.74,1.12-1.44l.68-1.21-2.06-12.4h2.07l.93,6.25c.19,1.23,.35,2.47,.48,3.7l5.53-9.96h2.2l-7.88,14.01c-.76,1.37-1.44,2.27-2.03,2.71-.59,.44-1.27,.66-2.04,.66-.49,0-.97-.08-1.43-.24Z"/><path class="d" d="M24.15,21.81l3.58-17.11h1.94l-.36,1.72c.72-.75,1.37-1.28,1.94-1.57,.57-.29,1.17-.44,1.81-.44,1.18,0,2.16,.43,2.93,1.29s1.16,2.09,1.16,3.69c0,1.29-.21,2.46-.64,3.52-.43,1.06-.95,1.91-1.57,2.56-.62,.64-1.25,1.12-1.89,1.42-.64,.3-1.29,.45-1.96,.45-1.48,0-2.63-.75-3.45-2.26l-1.4,6.72h-2.11Zm4.17-9.79c0,.92,.07,1.56,.2,1.92,.19,.5,.51,.91,.96,1.22,.44,.31,.96,.47,1.54,.47,1.21,0,2.19-.68,2.93-2.04s1.12-2.75,1.12-4.17c0-1.05-.25-1.86-.75-2.43-.5-.57-1.12-.86-1.87-.86-.54,0-1.03,.14-1.49,.42-.46,.28-.88,.71-1.28,1.27-.39,.56-.72,1.25-.97,2.07-.26,.81-.38,1.53-.38,2.13Z"/><path class="d" d="M47.53,12.87l2.05,.21c-.29,1.02-.97,1.98-2.03,2.9-1.06,.92-2.32,1.37-3.79,1.37-.92,0-1.76-.21-2.52-.63s-1.35-1.04-1.75-1.85c-.4-.81-.6-1.73-.6-2.76,0-1.35,.31-2.66,.94-3.93,.62-1.27,1.43-2.21,2.43-2.83s2.07-.93,3.23-.93c1.48,0,2.65,.46,3.53,1.37,.88,.92,1.32,2.17,1.32,3.75,0,.61-.05,1.23-.16,1.86h-9.11c-.03,.24-.05,.46-.05,.65,0,1.16,.27,2.04,.8,2.65s1.18,.91,1.95,.91c.72,0,1.43-.24,2.13-.71s1.24-1.16,1.63-2.05Zm-6.13-3.06h6.94c0-.22,.01-.37,.01-.47,0-1.06-.26-1.86-.79-2.43-.53-.56-1.21-.84-2.04-.84-.9,0-1.72,.31-2.46,.93-.74,.62-1.29,1.56-1.66,2.81Z"/><path class="d" d="M51.71,17.07l2.58-12.37h1.86l-.52,2.53c.64-.96,1.26-1.66,1.87-2.12s1.23-.69,1.87-.69c.42,0,.94,.15,1.55,.45l-.86,1.96c-.37-.26-.76-.4-1.2-.4-.74,0-1.5,.41-2.27,1.23-.78,.82-1.39,2.3-1.83,4.44l-1.05,4.96h-2Z"/></g></g></g></svg>